<?xml version="1.0" encoding="utf-8"?>
<!-- Generator: Adobe Illustrator 16.0.0, SVG Export Plug-In . SVG Version: 6.00 Build 0)  -->
<!DOCTYPE svg PUBLIC "-//W3C//DTD SVG 1.1//EN" "http://www.w3.org/Graphics/SVG/1.1/DTD/svg11.dtd">
<svg version="1.1" id="Layer_1" xmlns="http://www.w3.org/2000/svg" xmlns:xlink="http://www.w3.org/1999/xlink" x="0px" y="0px"
	 width="180.601px" height="392.79px" viewBox="0 0 180.601 392.79" enable-background="new 0 0 180.601 392.79"
	 xml:space="preserve">
<g>
	<path fill-rule="evenodd" clip-rule="evenodd" fill="#92278F" d="M0,202.849c0-3.054,0-6.107,0-9.161
		c0.474-0.943,1.097-1.842,1.401-2.837c8.802-28.901,17.544-57.821,26.357-86.719C34.05,83.5,49.415,72.086,70.883,72.024
		c12.865-0.036,25.73-0.038,38.595,0.001c20.928,0.062,37.172,12.051,43.386,32.06c2.771,8.925,5.332,17.917,8.106,26.841
		c6.506,20.932,13.083,41.842,19.631,62.761c0,3.054,0,6.107,0,9.161c-0.547,0.888-1.133,1.754-1.636,2.666
		c-2.678,4.847-7.23,8.097-12.226,6.94c-4.084-0.944-7.716-4.745-11-7.858c-1.564-1.483-2.012-4.264-2.695-6.538
		c-7.498-24.979-15.003-49.954-22.343-74.979c-1.315-4.482-3.124-7.082-8.504-4.573c14.36,49.47,28.734,98.994,43.364,149.393
		c-14.17,0-26.979,0-40.658,0c0,3.105,0,5.653,0,8.2c0,31.83,0.012,63.66-0.021,95.49c-0.003,3.043,0.43,6.37-0.628,9.06
		c-1.344,3.42-3.42,7.057-6.225,9.286c-4.827,3.836-10.577,3.592-15.978,0.546c-5.763-3.25-7.614-8.57-7.61-14.855
		c0.019-33.574,0.008-67.148,0.006-100.723c0-2.53,0-5.06,0-7.63c-3.189,0-5.48,0-8.396,0c0,2.921-0.001,5.485,0,8.05
		c0.011,32.266,0.037,64.532,0.009,96.798c-0.002,2.817-0.044,5.698-0.602,8.441c-1.97,9.682-12.164,14.71-21.191,10.681
		c-7.626-3.404-8.986-9.966-8.982-17.323c0.021-32.702,0.008-65.404,0.007-98.106c0-2.518,0-5.035,0-8.214
		c-13.764,0-26.521,0-40.342,0c14.497-50.287,28.732-99.671,42.987-149.119c-5.287-2.317-6.761,0.443-7.955,4.526
		c-7.438,25.449-15,50.863-22.575,76.272c-1.954,6.555-5.052,12.321-12.752,13.149C7.354,213.213,3.051,208.853,0,202.849z"/>
	<path fill-rule="evenodd" clip-rule="evenodd" fill="#92278F" d="M98.152,0c1.849,0.924,3.676,1.894,5.549,2.765
		c14.06,6.543,21.447,21.66,17.928,36.729c-3.387,14.5-17.025,24.929-32.075,24.526c-14.584-0.39-28.017-11.723-30.497-25.73
		C56.277,22.58,64.441,7.84,79.108,2.051C80.683,1.43,82.208,0.687,83.757,0C88.555,0,93.354,0,98.152,0z"/>
</g>
</svg>
