<?xml version="1.0" encoding="utf-8"?>
<!-- Generator: Adobe Illustrator 16.0.0, SVG Export Plug-In . SVG Version: 6.00 Build 0)  -->
<!DOCTYPE svg PUBLIC "-//W3C//DTD SVG 1.1//EN" "http://www.w3.org/Graphics/SVG/1.1/DTD/svg11.dtd">
<svg version="1.1" id="Layer_1" xmlns="http://www.w3.org/2000/svg" xmlns:xlink="http://www.w3.org/1999/xlink" x="0px" y="0px"
	 width="48.032px" height="112.816px" viewBox="639.136 411.137 48.032 112.816"
	 enable-background="new 639.136 411.137 48.032 112.816" xml:space="preserve">
<g>
	<path fill="#27AAE1" d="M687.168,470.223c0,1.015,0,2.028,0,3.05c-1.076,1.554-2.221,3.025-4.446,2.399
		c-2.163-0.607-2.537-2.372-2.806-4.291c-0.484-3.527-1.098-7.029-1.67-10.537c-0.718-4.43-1.45-8.851-2.176-13.277
		c-0.363,0.895-0.363,1.757-0.363,2.619c-0.009,22.298-0.017,44.597-0.035,66.896c0,0.946,0.002,1.917-0.193,2.836
		c-0.533,2.502-2.786,4.169-5.283,4.027c-2.469-0.138-4.497-2.101-4.757-4.643c-0.07-0.694-0.052-1.396-0.052-2.096
		c-0.003-13.085-0.003-26.173-0.003-39.263c0-0.743,0-1.482,0-2.331c-1.534,0-2.833,0-4.351,0c0,0.851,0,1.6,0,2.35
		c0,13.021,0.003,26.045-0.006,39.065c0,0.889,0.009,1.792-0.13,2.659c-0.388,2.42-2.493,4.215-4.903,4.261
		c-2.426,0.052-4.604-1.626-5.088-4.033c-0.188-0.925-0.19-1.895-0.19-2.841c0-22.616,0.014-45.231,0.027-67.848
		c0-0.694,0-1.388,0-2.082c-0.499,0.296-0.559,0.588-0.602,0.887c-1.271,8.094-2.54,16.186-3.806,24.277
		c-0.458,2.925-3.188,4.405-5.432,2.873c-0.7-0.479-1.185-1.266-1.768-1.911c0-1.019,0-2.03,0-3.049
		c0.13-0.415,0.32-0.819,0.382-1.245c0.775-5.147,1.407-10.313,2.329-15.432c0.919-5.104,1.819-10.244,3.299-15.199
		c1.382-4.639,5.112-6.826,9.899-6.896c5.777-0.086,11.554-0.079,17.327,0.043c4.37,0.092,7.471,2.234,9,6.395
		c0.523,1.423,0.946,2.903,1.198,4.396c0.829,4.88,1.531,9.78,2.331,14.665C685.625,461.379,686.408,465.797,687.168,470.223z"/>
	<path fill="#27AAE1" d="M665.062,411.137c2.925,1.108,5.416,2.708,6.639,5.785c1.849,4.652-0.345,9.932-4.947,11.86
		c-4.671,1.957-10.087-0.271-12.014-4.945c-1.903-4.605,0.246-9.908,4.822-11.922c0.566-0.252,1.128-0.518,1.688-0.778
		C662.519,411.137,663.79,411.137,665.062,411.137z"/>
</g>
</svg>
