<?xml version="1.0" encoding="utf-8"?>
<!-- Generator: Adobe Illustrator 16.0.0, SVG Export Plug-In . SVG Version: 6.00 Build 0)  -->
<!DOCTYPE svg PUBLIC "-//W3C//DTD SVG 1.1//EN" "http://www.w3.org/Graphics/SVG/1.1/DTD/svg11.dtd">
<svg version="1.1" id="Layer_1" xmlns="http://www.w3.org/2000/svg" xmlns:xlink="http://www.w3.org/1999/xlink" x="0px" y="0px"
	 width="225.874px" height="162.938px" viewBox="0 0 225.874 162.938" enable-background="new 0 0 225.874 162.938"
	 xml:space="preserve">
<path fill="#FFFFFF" stroke="#92278F" stroke-width="5" stroke-miterlimit="10" d="M170.111,89.229
	c-11.423,35.98-25.501,63.959-57.171,63.959c-31.668,0-47.252-27.979-57.515-63.959c-11.3-39.616,25.673-74.592,57.342-74.592
	C144.438,14.637,182.577,49.964,170.111,89.229z"/>
<path fill="#92278F" d="M85.804,5.69c64.317,0.778-6.481,35.961-7.539,72.669c-1.058,36.708-15.523,86.642-45.524,72.313
	c-59.776-28.551-15.296-40.675,6.849-71.299C59.785,51.444,60.305,5.381,85.804,5.69z"/>
<path fill="#92278F" d="M139.198,5.69c-64.317,0.778,6.481,35.961,7.539,72.669c1.058,36.708,15.523,86.642,45.524,72.313
	c59.775-28.551,15.296-40.675-6.849-71.299C165.217,51.444,164.697,5.381,139.198,5.69z"/>
<g>
	<g>
		<path fill="#92278F" d="M95.769,83.521c9.673,0,9.673-15,0-15S86.096,83.521,95.769,83.521L95.769,83.521z"/>
	</g>
</g>
<g>
	<g>
		<path fill="#92278F" d="M129.519,83.521c9.673,0,9.673-15,0-15S119.846,83.521,129.519,83.521L129.519,83.521z"/>
	</g>
</g>
</svg>
