<?xml version="1.0" encoding="utf-8"?>
<!-- Generator: Adobe Illustrator 16.0.0, SVG Export Plug-In . SVG Version: 6.00 Build 0)  -->
<!DOCTYPE svg PUBLIC "-//W3C//DTD SVG 1.1//EN" "http://www.w3.org/Graphics/SVG/1.1/DTD/svg11.dtd">
<svg version="1.1" id="Layer_1" xmlns="http://www.w3.org/2000/svg" xmlns:xlink="http://www.w3.org/1999/xlink" x="0px" y="0px"
	 width="798px" height="430px" viewBox="0 0 798 430" enable-background="new 0 0 798 430" xml:space="preserve">
<path fill="#FFFFFF" stroke="#27AAE1" stroke-width="10" stroke-miterlimit="10" d="M14.284,19.96c0,0,55.05,6.009,64.179,17.431
	c18.15,22.706,55.071,101.845,114.204,108.7c58.085,6.734,91.269,14.994,110.667,32.254c20,17.796,65.941,30.962,204.667,41.827
	c176,13.784,266.621,16.979,272,17.121"/>
<path fill="#FFFFFF" stroke="#BE1E2D" stroke-width="10" stroke-miterlimit="10" d="M99.135,284.04c0,0,172.924,0,180.856,0
	s44.42-15.015,57.112-18.769c12.692-3.753,109.465-5.005,123.744,0c14.278,5.006,39.471,7.961,69.708,7.734
	c30.239-0.227,228.546,0,228.546,0"/>
<circle fill="#27AAE1" cx="18" cy="19.96" r="12"/>
<circle fill="#27AAE1" cx="77" cy="36.627" r="12"/>
<circle fill="#27AAE1" cx="119.667" cy="98.294" r="12"/>
<circle fill="#27AAE1" cx="180.667" cy="145.96" r="12"/>
<circle fill="#27AAE1" cx="250.667" cy="155.293" r="12"/>
<circle fill="#27AAE1" cx="296.667" cy="173.96" r="12"/>
<circle fill="#BE1E2D" cx="99.135" cy="284.039" r="12"/>
<circle fill="#BE1E2D" cx="168.667" cy="284.04" r="12"/>
<circle fill="#BE1E2D" cx="238.667" cy="284.04" r="12"/>
<circle fill="#BE1E2D" cx="313.334" cy="272.039" r="12"/>
<circle fill="#27AAE1" cx="378.334" cy="202.706" r="12"/>
<circle fill="#BE1E2D" cx="378.334" cy="261.971" r="12"/>
<circle fill="#27AAE1" cx="443.667" cy="214.706" r="12"/>
<circle fill="#BE1E2D" cx="441.119" cy="261.971" r="12"/>
<circle fill="#BE1E2D" cx="496.119" cy="272.039" r="12"/>
<circle fill="#27AAE1" cx="506.119" cy="218.706" r="12"/>
<circle fill="#27AAE1" cx="567" cy="223.706" r="12"/>
<circle fill="#27AAE1" cx="626" cy="226.706" r="12"/>
<circle fill="#27AAE1" cx="676.611" cy="230.705" r="12"/>
<circle fill="#27AAE1" cx="735.664" cy="235.705" r="12"/>
<circle fill="#27AAE1" cx="780" cy="235.705" r="12"/>
<circle fill="#BE1E2D" cx="558" cy="273.971" r="12"/>
<circle fill="#BE1E2D" cx="623.333" cy="273.006" r="12"/>
<circle fill="#BE1E2D" cx="676.609" cy="273.006" r="12"/>
<circle fill="#BE1E2D" cx="759.103" cy="272.04" r="12"/>
</svg>
