<?xml version="1.0" encoding="utf-8"?>
<!-- Generator: Adobe Illustrator 16.0.0, SVG Export Plug-In . SVG Version: 6.00 Build 0)  -->
<!DOCTYPE svg PUBLIC "-//W3C//DTD SVG 1.1//EN" "http://www.w3.org/Graphics/SVG/1.1/DTD/svg11.dtd">
<svg version="1.1" id="Layer_1" xmlns="http://www.w3.org/2000/svg" xmlns:xlink="http://www.w3.org/1999/xlink" x="0px" y="0px"
	 width="798px" height="430px" viewBox="0 0 798 430" enable-background="new 0 0 798 430" xml:space="preserve">
<rect x="3.734" y="58.743" fill="#BE1E2D" width="23.894" height="291.15"/>
<rect x="31.168" y="90.602" fill="#BE1E2D" width="23.894" height="259.292"/>
<rect x="58.602" y="304.761" fill="#BE1E2D" width="23.894" height="45.133"/>
<rect x="86.035" y="251.664" fill="#BE1E2D" width="23.894" height="98.229"/>
<rect x="113.469" y="148.124" fill="#BE1E2D" width="23.894" height="201.77"/>
<rect x="140.902" y="84.407" fill="#BE1E2D" width="23.894" height="265.486"/>
<rect x="168.336" y="312.726" fill="#BE1E2D" width="23.894" height="37.168"/>
<rect x="195.77" y="300.779" fill="#BE1E2D" width="23.894" height="49.114"/>
<rect x="223.203" y="263.168" fill="#BE1E2D" width="23.894" height="86.726"/>
<rect x="250.637" y="158.743" fill="#BE1E2D" width="23.894" height="191.15"/>
<rect x="278.07" y="183.522" fill="#BE1E2D" width="23.894" height="166.372"/>
<rect x="305.504" y="135.734" fill="#BE1E2D" width="23.894" height="214.159"/>
<rect x="332.938" y="263.168" fill="#BE1E2D" width="23.894" height="86.726"/>
<rect x="360.371" y="135.734" fill="#BE1E2D" width="23.894" height="214.159"/>
<rect x="387.805" y="135.734" fill="#BE1E2D" width="23.894" height="214.159"/>
<rect x="415.238" y="158.743" fill="#BE1E2D" width="23.894" height="191.15"/>
<rect x="442.672" y="135.734" fill="#BE1E2D" width="23.894" height="214.159"/>
<rect x="470.105" y="190.602" fill="#BE1E2D" width="23.894" height="159.292"/>
<rect x="497.539" y="77.328" fill="#BE1E2D" width="23.894" height="272.566"/>
<rect x="524.973" y="58.743" fill="#BE1E2D" width="23.894" height="291.15"/>
<rect x="552.406" y="103.876" fill="#BE1E2D" width="23.894" height="246.018"/>
<rect x="579.84" y="127.77" fill="#BE1E2D" width="23.894" height="222.124"/>
<rect x="607.273" y="300.779" fill="#BE1E2D" width="23.894" height="49.114"/>
<rect x="634.707" y="242.814" fill="#BE1E2D" width="23.894" height="107.08"/>
<rect x="662.141" y="300.779" fill="#BE1E2D" width="23.894" height="49.114"/>
<rect x="689.574" y="163.168" fill="#BE1E2D" width="23.894" height="186.726"/>
<rect x="717.008" y="100.336" fill="#BE1E2D" width="23.894" height="249.557"/>
<rect x="744.441" y="77.328" fill="#BE1E2D" width="23.894" height="272.566"/>
<rect x="771.875" y="58.743" fill="#BE1E2D" width="23.894" height="291.15"/>
</svg>
