<?xml version="1.0" encoding="utf-8"?>
<!-- Generator: Adobe Illustrator 16.0.0, SVG Export Plug-In . SVG Version: 6.00 Build 0)  -->
<!DOCTYPE svg PUBLIC "-//W3C//DTD SVG 1.1//EN" "http://www.w3.org/Graphics/SVG/1.1/DTD/svg11.dtd">
<svg version="1.1" id="Layer_1" xmlns="http://www.w3.org/2000/svg" xmlns:xlink="http://www.w3.org/1999/xlink" x="0px" y="0px"
	 width="798px" height="430px" viewBox="0 0 798 430" enable-background="new 0 0 798 430" xml:space="preserve">
<g>
	<rect x="11.922" y="36.235" fill="#E6E7E8" width="62.764" height="62.764"/>
	<rect x="81.66" y="36.235" fill="#E6E7E8" width="62.764" height="62.764"/>
	<rect x="151.399" y="36.235" fill="#E6E7E8" width="62.764" height="62.764"/>
	<rect x="221.138" y="36.235" fill="#EF4136" width="62.763" height="62.764"/>
	<rect x="290.876" y="36.235" fill="#BE1E2D" width="62.763" height="62.764"/>
	<rect x="360.614" y="36.235" fill="#BE1E2D" width="62.763" height="62.764"/>
	<rect x="430.353" y="36.235" fill="#ED1C24" width="62.763" height="62.764"/>
	<rect x="11.922" y="107.368" fill="#EF4136" width="62.764" height="62.764"/>
	<rect x="81.66" y="107.368" fill="#BE1E2D" width="62.764" height="62.764"/>
	<rect x="151.399" y="107.368" fill="#BE1E2D" width="62.764" height="62.764"/>
	<rect x="221.138" y="107.368" fill="#BE1E2D" width="62.763" height="62.764"/>
	<rect x="290.876" y="107.368" fill="#BE1E2D" width="62.763" height="62.764"/>
	<rect x="360.614" y="107.368" fill="#ED1C24" width="62.763" height="62.764"/>
	<rect x="430.353" y="107.368" fill="#ED1C24" width="62.763" height="62.764"/>
	<rect x="11.922" y="178.5" fill="#BE1E2D" width="62.764" height="62.764"/>
	<rect x="81.66" y="178.5" fill="#ED1C24" width="62.764" height="62.764"/>
	<rect x="151.399" y="178.5" fill="#ED1C24" width="62.764" height="62.764"/>
	<rect x="221.138" y="178.5" fill="#BE1E2D" width="62.763" height="62.764"/>
	<rect x="290.876" y="178.5" fill="#BE1E2D" width="62.763" height="62.764"/>
	<rect x="360.614" y="178.5" fill="#ED1C24" width="62.763" height="62.764"/>
	<rect x="430.353" y="178.5" fill="#ED1C24" width="62.763" height="62.764"/>
	<rect x="11.922" y="249.633" fill="#BE1E2D" width="62.764" height="62.766"/>
	<rect x="81.66" y="249.633" fill="#ED1C24" width="62.764" height="62.766"/>
	<rect x="151.399" y="249.633" fill="#BE1E2D" width="62.764" height="62.766"/>
	<rect x="221.138" y="249.633" fill="#BE1E2D" width="62.763" height="62.766"/>
	<rect x="290.876" y="249.633" fill="#BE1E2D" width="62.763" height="62.766"/>
	<rect x="360.614" y="249.633" fill="#ED1C24" width="62.763" height="62.766"/>
	<rect x="430.353" y="249.633" fill="#ED1C24" width="62.763" height="62.766"/>
	<rect x="11.922" y="320.766" fill="#BE1E2D" width="62.764" height="62.764"/>
	<rect x="81.66" y="320.766" fill="#BE1E2D" width="62.764" height="62.764"/>
	<rect x="151.399" y="320.766" fill="#BE1E2D" width="62.764" height="62.764"/>
	<rect x="221.138" y="320.766" fill="#BE1E2D" width="62.763" height="62.764"/>
	<rect x="290.876" y="320.766" fill="#EF4136" width="62.763" height="62.764"/>
	<rect x="360.614" y="320.766" fill="#BE1E2D" width="62.763" height="62.764"/>
	<rect x="430.353" y="320.766" fill="#E6E7E8" width="62.763" height="62.764"/>
</g>
</svg>
