<?xml version="1.0" encoding="utf-8"?>
<!-- Generator: Adobe Illustrator 16.0.0, SVG Export Plug-In . SVG Version: 6.00 Build 0)  -->
<!DOCTYPE svg PUBLIC "-//W3C//DTD SVG 1.1//EN" "http://www.w3.org/Graphics/SVG/1.1/DTD/svg11.dtd">
<svg version="1.1" id="Layer_1" xmlns="http://www.w3.org/2000/svg" xmlns:xlink="http://www.w3.org/1999/xlink" x="0px" y="0px"
	 width="37.361px" height="190.667px" viewBox="0 0 37.361 190.667" enable-background="new 0 0 37.361 190.667"
	 xml:space="preserve">
<g opacity="0.4">
	<g>
		<path fill="#E2E4E8" d="M27.237,4.482C20.73,28.369,14.224,52.256,7.717,76.144c-1.522,5.595-3.048,11.19-4.57,16.786
			c-0.402,1.476-1.774,4.179-1.35,5.743c2.646,9.707,5.287,19.412,7.933,29.117c5.313,19.508,10.626,39.015,15.938,58.521
			c0.457,1.676,5.41,1.802,4.87-0.181c-6.539-24.006-13.078-48.01-19.616-72.016c-1.257-4.615-2.514-9.229-3.771-13.845
			c-0.583-2.142-0.456-1.586,0.189-3.96c3.254-11.938,6.505-23.875,9.757-35.813c5.036-18.489,10.072-36.98,15.109-55.472
			C32.661,3.362,27.745,2.619,27.237,4.482L27.237,4.482z"/>
	</g>
</g>
</svg>
