<?xml version="1.0" encoding="utf-8"?>
<!-- Generator: Adobe Illustrator 16.0.0, SVG Export Plug-In . SVG Version: 6.00 Build 0)  -->
<!DOCTYPE svg PUBLIC "-//W3C//DTD SVG 1.1//EN" "http://www.w3.org/Graphics/SVG/1.1/DTD/svg11.dtd">
<svg version="1.1" id="Layer_1" xmlns="http://www.w3.org/2000/svg" xmlns:xlink="http://www.w3.org/1999/xlink" x="0px" y="0px"
	 width="273.944px" height="89.86px" viewBox="0 0 273.944 89.86" enable-background="new 0 0 273.944 89.86" xml:space="preserve">
<g>
	<g>
		<path fill="#27AAE1" d="M212.194,3.478C209.21,2.036,204.778,0.898,199.672,0H0v78.322h273.94
			C274.42,39.161,230.402,12.272,212.194,3.478z"/>
		<path fill="#FFFFFF" d="M45.02,34.97c0,3.782-3.065,6.848-6.847,6.848H16.396c-3.782,0-6.847-3.065-6.847-6.848v-8.61
			c0-3.782,3.065-6.848,6.847-6.848h21.776c3.782,0,6.847,3.065,6.847,6.848V34.97z"/>
		<path fill="#FFFFFF" d="M89.637,34.97c0,3.782-3.065,6.848-6.847,6.848H61.014c-3.782,0-6.847-3.065-6.847-6.848v-8.61
			c0-3.782,3.065-6.848,6.847-6.848H82.79c3.782,0,6.847,3.065,6.847,6.848V34.97z"/>
		<path fill="#FFFFFF" d="M134.254,34.97c0,3.782-3.064,6.848-6.848,6.848h-21.775c-3.781,0-6.847-3.065-6.847-6.848v-8.611
			c0-3.782,3.065-6.847,6.847-6.847h21.775c3.783,0,6.848,3.065,6.848,6.847V34.97z"/>
		<path fill="#FFFFFF" d="M178.87,34.97c0,3.782-3.064,6.848-6.848,6.848h-21.774c-3.782,0-6.847-3.065-6.847-6.848v-8.61
			c0-3.782,3.065-6.848,6.847-6.848h21.774c3.783,0,6.848,3.065,6.848,6.848V34.97z"/>
		<path fill="#FFFFFF" d="M234.658,38.107c0,4.667-14.234,3.665-18.019,3.665h-21.775c-3.78,0-6.846-3.065-6.846-6.848v-8.61
			c0-3.782,3.065-6.848,6.846-6.848h20.794C229.011,20.441,234.658,38.107,234.658,38.107z"/>
		<circle fill="#27AAE1" cx="28.477" cy="78.322" r="11.538"/>
		<circle fill="#27AAE1" cx="60.755" cy="78.322" r="11.538"/>
		<circle fill="#27AAE1" cx="195.198" cy="78.322" r="11.538"/>
		<circle fill="#27AAE1" cx="227.478" cy="78.322" r="11.538"/>
	</g>
	<rect y="52.44" fill="#FFFFFF" width="273.944" height="2.381"/>
	<rect x="-2.718" y="57.512" fill="#FFFFFF" width="276.663" height="2.381"/>
</g>
</svg>
